<svg width="42" height="42" viewBox="0 0 42 42" fill="none" xmlns="http://www.w3.org/2000/svg">
<path d="M10.0488 31.4663C9.99631 31.4233 9.93715 31.3892 9.87364 31.3653C9.80629 31.3653 9.79956 31.3653 9.73894 31.3653C9.7101 31.3643 9.68177 31.373 9.65854 31.3902C9.63531 31.4073 9.61855 31.4317 9.61098 31.4596C9.5571 31.5875 9.6918 31.7492 9.92079 31.857C10.1498 31.9647 10.2643 31.5875 10.0488 31.4394M14.5209 34.8743C14.4737 34.7934 14.6286 34.5981 14.3996 34.5981C14.3327 34.5868 14.2644 34.5868 14.1976 34.5981C14.1572 34.5981 14.0898 34.7732 14.0763 34.7665C13.8996 34.6879 13.7173 34.6226 13.5308 34.5712C13.2883 34.5106 13.1536 34.3355 12.9583 34.3961C12.88 34.4097 12.8048 34.4371 12.7361 34.4769C12.7075 34.5001 12.6854 34.5302 12.6718 34.5643C12.6582 34.5984 12.6535 34.6355 12.6582 34.6719C12.6629 34.7083 12.6769 34.743 12.6988 34.7725C12.7206 34.802 12.7497 34.8255 12.7832 34.8406C12.8438 34.881 13.2614 34.8406 13.4567 34.8406C13.652 34.8406 13.8406 34.9349 13.8541 35.0157C13.8675 35.0965 13.8137 35.1235 13.7396 35.1773C13.657 35.2369 13.5619 35.2769 13.4616 35.2944C13.3613 35.3119 13.2583 35.3064 13.1604 35.2784C13.1604 35.2784 13.1604 35.2178 13.1604 35.1841C13.1604 35.1504 13.3692 35.1302 13.3759 35.1033C13.3826 35.0763 13.1604 34.9955 12.9583 34.9753C12.889 34.9658 12.8188 34.9658 12.7495 34.9753C12.6036 35.0445 12.4741 35.1439 12.3696 35.267C12.2651 35.3901 12.188 35.534 12.1434 35.6892C12.0491 35.9788 11.9211 36.1944 12.0693 36.3223C12.2175 36.4503 12.3454 36.2819 12.4734 35.9586C12.5507 35.8391 12.6639 35.7472 12.7967 35.696C12.8455 35.6361 12.9158 35.5977 12.9925 35.5889C13.0692 35.5801 13.1464 35.6016 13.2075 35.6488C13.2075 35.6488 13.2075 35.7162 13.1267 35.7162C13.0807 35.714 13.0348 35.7227 12.9927 35.7414C12.9506 35.7601 12.9135 35.7883 12.8842 35.8239C12.8842 35.8913 12.8842 35.9788 12.8842 36.0664C12.8842 36.1539 12.6956 36.1337 12.8169 36.3223C12.8169 36.3223 12.7091 36.3829 12.6687 36.3223C12.6283 36.2617 12.6687 36.2684 12.6687 36.2617C12.6687 36.255 12.4936 36.3897 12.4734 36.4031C12.3551 36.4868 12.2191 36.5421 12.076 36.5648C11.7964 36.6388 11.5219 36.731 11.2543 36.8409C11.0186 36.9487 11.0523 37.1238 11.315 37.2383C11.4294 37.2922 11.7527 37.1507 11.9076 37.0969C12.0495 37.0332 12.2034 37.0011 12.3589 37.0026C12.4667 37.0026 12.0019 37.575 12.0087 37.6761C12.0154 37.7771 12.2377 37.9859 12.3319 37.804C12.4262 37.6222 12.4195 37.6155 12.4801 37.4875C12.5407 37.3595 12.6148 37.2922 12.662 37.2046C12.7091 37.1171 12.8034 36.9622 12.8371 36.9756C12.8708 36.9891 12.8977 37.1305 12.9718 37.3124C13.1725 37.7697 13.518 38.1484 13.9551 38.39C14.1841 38.5045 14.3659 38.39 14.2717 38.1004L14.2178 37.9522C14.1706 37.8377 14.1706 37.9522 13.9551 37.7973C13.8945 37.7502 13.6386 37.4875 13.5039 37.3663C13.4066 37.2734 13.3268 37.164 13.2681 37.043C13.2277 36.9487 13.1132 36.9015 13.3085 36.814C13.5039 36.7264 13.3422 36.6187 13.4432 36.6052C13.5443 36.5917 13.6857 36.6052 13.7935 36.6052C13.9012 36.6052 14.0898 36.4772 14.2986 36.4099C14.5074 36.3425 14.7566 35.9721 14.6556 35.8172C14.5545 35.6623 14.4333 35.6623 14.2514 35.5545C14.0696 35.4468 13.9551 35.6151 14.0561 35.467C14.1572 35.3188 14.137 35.3188 14.2447 35.3188C14.3525 35.3188 14.9182 35.5815 14.9721 35.3188C15.026 35.0561 14.6219 35.1639 14.5209 34.9888M14.1437 35.9317C14.1437 36.1001 13.8675 36.2213 13.6924 36.2684C13.6251 36.2684 13.551 36.3425 13.5106 36.3493C13.4702 36.356 13.4163 36.3493 13.5106 36.2146C13.6049 36.0799 13.6924 36.026 13.6116 35.9384C13.5308 35.8509 13.6655 35.6219 13.7396 35.6892C13.8137 35.7566 14.137 35.8845 14.137 35.9317M19.5318 5.59012L19.4644 4.3374H19.9426L20.8249 5.54297L21.4984 5.5093L20.5622 4.20943C20.7315 4.14319 20.8737 4.02229 20.9663 3.86594C21.0605 3.70037 21.1028 3.51029 21.0876 3.3204C21.0895 3.19342 21.0641 3.06751 21.0129 2.95128C20.9618 2.83504 20.8862 2.73121 20.7912 2.64689C20.6931 2.56431 20.5792 2.50261 20.4565 2.46555C20.3337 2.42849 20.2047 2.41686 20.0773 2.43137L18.7909 2.50545L18.966 5.59686L19.5318 5.59012ZM20.0706 3.01732C20.1804 3.00348 20.2913 3.03242 20.3804 3.09814C20.4202 3.13086 20.4523 3.17197 20.4745 3.21854C20.4966 3.26511 20.5082 3.31599 20.5083 3.36754C20.5144 3.41873 20.5091 3.47062 20.4928 3.51952C20.4765 3.56841 20.4496 3.61311 20.4141 3.65042C20.3327 3.72378 20.2272 3.76455 20.1177 3.76491L19.4442 3.80532L19.3971 3.05773L20.0706 3.01732ZM10.3451 32.1264C10.2104 32.1264 10.3451 32.3015 10.3451 32.3284C10.3451 32.3554 10.4057 32.3284 10.4327 32.3688C10.4596 32.4092 10.601 32.5709 10.6751 32.5843C10.9445 32.6248 11.0119 32.4227 10.8368 32.2476C10.7683 32.1864 10.6856 32.1433 10.5962 32.1221C10.5068 32.1009 10.4136 32.1024 10.3249 32.1264M19.9763 37.2248C19.7742 37.1305 19.4375 37.3258 19.3566 37.2248C19.2758 37.1238 19.4038 37.0834 19.4173 37.0093C19.4301 36.9611 19.4239 36.9098 19.4001 36.866C19.3763 36.8222 19.3367 36.7891 19.2893 36.7736C19.2354 36.7736 19.2354 36.686 19.2893 36.6793C19.3699 36.6704 19.4512 36.6704 19.5318 36.6793C19.6078 36.7017 19.689 36.6988 19.7632 36.6708C19.8374 36.6428 19.9003 36.5914 19.9426 36.5244C19.9587 36.4875 19.9621 36.4464 19.9524 36.4074C19.9426 36.3684 19.9203 36.3338 19.8887 36.3088C19.6546 36.2314 19.4063 36.2061 19.1613 36.2348C18.8111 36.2348 18.4474 36.2348 18.3733 36.356C18.2992 36.4772 18.2656 36.4907 18.2251 36.5648C18.1847 36.6389 18.1376 36.7803 18.0702 36.8274C17.8615 36.9689 17.8008 37.2652 17.7672 37.1642C17.7335 37.0632 17.6392 37.1036 17.5786 37.0901C17.518 37.0766 17.5786 37.0026 17.5786 36.9756C17.5786 36.9487 17.6123 36.9756 17.6594 36.9756C17.794 36.9228 17.9044 36.822 17.9692 36.6927C18.0366 36.457 18.1309 36.2752 18.0231 36.1337C17.9704 36.0755 17.9059 36.0291 17.8339 35.9978C17.7619 35.9664 17.684 35.9508 17.6055 35.9519C17.4979 35.946 17.3902 35.962 17.289 35.999C17.1341 36.0664 17.0802 36.255 16.9859 36.4907C16.9205 36.6074 16.8642 36.729 16.8175 36.8544C16.7636 37.043 16.703 37.3056 16.6693 37.4403C16.6014 37.6803 16.6014 37.9345 16.6693 38.1745C16.703 38.289 16.6693 38.4439 16.831 38.4573C16.9926 38.4708 16.8983 37.9724 16.9455 37.7838C16.9473 37.7416 16.9585 37.7004 16.9783 37.6631C16.9981 37.6258 17.026 37.5934 17.06 37.5683C17.06 37.5683 17.1004 37.5144 17.1408 37.5346C17.1812 37.5548 17.1408 37.6895 17.1745 37.6895C17.2082 37.6895 17.3496 37.5481 17.4439 37.602C17.5382 37.6559 17.4102 37.7704 17.3159 37.8444C17.2216 37.9185 17.0465 38.2822 17.3159 38.3496C17.4237 38.3496 17.5449 38.2351 17.5988 38.0869C17.6527 37.9387 17.5988 37.8983 17.6729 37.8108C17.747 37.7232 17.7672 37.7232 17.8143 37.6424C17.8582 37.5497 17.9077 37.4597 17.9625 37.373C18.0433 37.2585 18.1578 37.1507 18.2319 37.0632C18.3018 36.966 18.3858 36.8797 18.4811 36.8072C18.5251 36.7748 18.577 36.7545 18.6314 36.7486C18.6859 36.7427 18.7409 36.7513 18.7909 36.7736C18.8515 36.814 18.609 36.9554 18.4609 37.0901C18.2528 37.2876 18.1216 37.5525 18.0904 37.8377C18.0904 37.9657 18.0029 38.3092 18.0904 38.39C18.1151 38.4162 18.1458 38.436 18.1798 38.4477C18.2138 38.4595 18.2502 38.4628 18.2858 38.4573C18.4811 38.4573 18.4137 38.0734 18.5215 37.9185C18.5215 37.9185 18.5686 37.8242 18.6225 37.8512C18.604 38.2548 18.5385 38.6549 18.4272 39.0433C18.38 39.2721 18.3485 39.5039 18.3329 39.737C18.3329 39.8313 18.3329 39.9256 18.4609 39.9525C18.5888 39.9795 18.7437 39.5619 18.7909 39.279C18.8177 39.0434 18.8885 38.815 18.9997 38.6055C19.1538 38.486 19.3379 38.4114 19.5318 38.39C19.6867 38.3563 19.8214 38.1677 19.9089 38.0936C20.0353 37.9315 20.1228 37.7426 20.1649 37.5414C20.1765 37.5114 20.1819 37.4793 20.1806 37.4472C20.1794 37.415 20.1716 37.3835 20.1577 37.3544C20.1438 37.3254 20.1242 37.2995 20.0999 37.2784C20.0757 37.2573 20.0473 37.2413 20.0167 37.2316M17.4708 37.043C17.4004 37.0641 17.3367 37.1031 17.286 37.1562C17.2352 37.2094 17.1991 37.2748 17.1812 37.346C17.1812 37.3865 17.1139 37.346 17.1071 37.346C17.0846 37.2141 17.1084 37.0785 17.1745 36.9622C17.2822 36.7938 17.3226 36.6591 17.4102 36.5513C17.4978 36.4435 17.6594 36.3627 17.6863 36.3964C17.7133 36.4301 17.6055 36.5446 17.5988 36.6119C17.6007 36.7154 17.5648 36.816 17.4978 36.8948C17.4573 36.9621 17.5853 37.0228 17.4978 37.0564M18.8448 37.2248C18.764 37.3528 18.6562 37.4067 18.6023 37.346C18.5484 37.2854 18.7707 37.1103 18.865 36.9891C18.9593 36.8679 19.0064 36.8611 19.0468 36.8948C19.0872 36.9285 18.9593 37.0497 18.8448 37.2248ZM19.5318 37.9859C19.4173 38.06 19.3499 38.0936 19.2691 38.0802C19.1883 38.0667 19.1479 37.9791 19.1748 37.9387C19.2017 37.8983 19.1748 37.7838 19.2219 37.7165C19.2691 37.6491 19.4173 37.6491 19.5115 37.6491C19.6058 37.6491 19.7136 37.602 19.7271 37.6963C19.6996 37.8135 19.6301 37.9165 19.5318 37.9859ZM10.6751 32.6921C10.4798 32.5911 10.3384 32.5103 10.298 32.3958C10.298 32.3958 10.2575 32.2611 10.2171 32.2476C10.1767 32.2341 10.1633 32.3015 10.0892 32.2476C9.93278 32.0892 9.75341 31.9552 9.55709 31.8502C9.46954 31.8165 9.36178 31.6347 9.24728 31.6212C9.13278 31.6078 8.86338 31.702 8.97114 31.931C9.01829 32.0321 9.3079 32.0051 9.53015 32.1802C9.63792 32.2678 9.75241 32.1802 9.78609 32.3621C9.81976 32.5439 9.78609 32.416 9.73894 32.416C9.4896 32.312 9.23298 32.2265 8.97114 32.16C8.72194 32.1129 8.49969 32.0725 8.41887 32.2947C8.41887 32.3419 8.41887 32.5305 8.30437 32.4833C8.16154 32.427 8.00268 32.427 7.85985 32.4833C7.80456 32.536 7.75281 32.5922 7.70495 32.6517C7.59718 32.7999 7.7925 32.9211 7.70495 32.9682C7.61739 33.0154 7.5433 32.8942 7.41534 32.8672C7.28737 32.8403 7.23349 32.9413 7.19981 32.9884C7.16614 33.0356 7.19982 33.076 7.33452 33.1972C7.51569 33.3656 7.72863 33.4961 7.96088 33.5811C8.05204 33.6234 8.13258 33.6855 8.19661 33.763C8.24375 33.8438 8.14273 33.9112 8.0417 33.8573C7.94067 33.8034 6.99776 33.3454 7.10552 33.8573C7.1596 33.9792 7.24868 34.0824 7.36146 34.1536C7.42881 34.1536 7.63759 34.2142 7.65106 34.3153C7.66454 34.4163 7.34125 34.5375 7.40187 34.7328C7.46248 34.9282 7.51636 34.9551 7.59718 34.9147C7.67801 34.8743 7.96761 34.551 8.0417 34.5577C8.25049 34.5577 8.56704 35.0696 8.7893 34.9484C9.01155 34.8271 9.01155 34.6116 8.93073 34.5577C8.75578 34.4642 8.58905 34.3561 8.43234 34.2344C8.39193 34.1873 8.47275 34.1267 8.5401 34.0863C8.60745 34.0459 8.95767 34.3759 9.2136 34.5847C9.46954 34.7934 9.35504 34.7598 9.46954 34.8675C9.5066 34.9062 9.55386 34.9335 9.60582 34.9463C9.65779 34.9592 9.71233 34.957 9.76312 34.9401C9.8139 34.9231 9.85884 34.8921 9.89271 34.8507C9.92658 34.8092 9.948 34.759 9.95446 34.7059C9.95446 34.6049 9.48974 34.2344 9.28096 34.1065C9.07217 33.9785 8.90379 33.9112 8.90379 33.7899C8.90379 33.6687 9.06543 33.7495 9.07217 33.7495C9.28096 33.9381 10.2575 34.0391 10.2104 33.4195C10.2104 33.2107 10.372 33.1905 10.17 33.0356C10.17 33.0356 9.92752 32.9009 9.91405 32.8403C9.91374 32.819 9.91935 32.7981 9.93026 32.7798C9.94117 32.7616 9.95695 32.7467 9.97583 32.7369C9.99471 32.7271 10.0159 32.7228 10.0372 32.7244C10.0584 32.726 10.0787 32.7335 10.0959 32.746C10.2373 32.8403 10.4461 33.0356 10.4731 33.0491C10.7627 33.1905 10.9782 32.9009 10.628 32.719M9.44933 32.5776C9.48974 32.645 9.44933 32.6921 9.26749 32.6786C9.08564 32.6652 8.72868 32.6248 8.76235 32.4968C8.79603 32.3688 9.38872 32.4968 9.43586 32.5843M7.92047 32.8605C7.92047 32.6921 8.23028 32.7258 8.28416 32.7797C8.33804 32.8335 7.94741 33.0356 7.92047 32.8605ZM8.87685 33.1703C8.71521 33.2915 8.65459 33.4532 8.59398 33.4464C8.53336 33.4397 8.43233 33.3589 8.35151 33.3252C8.27069 33.2915 8.07538 33.2309 8.05517 33.1972C8.03497 33.1636 8.12252 33.1972 8.19661 33.1299C8.45254 32.9413 8.5603 32.8201 8.66806 32.8403C8.77582 32.8605 8.82971 32.9076 8.89706 32.9211C8.96441 32.9346 9.11931 32.9211 9.11258 32.9211C9.05002 33.0101 8.97255 33.0875 8.88359 33.1501M9.69853 33.4936C9.74568 33.4936 9.69853 33.5677 9.59751 33.5946C9.49648 33.6215 9.12605 33.6552 9.11258 33.5407C9.09911 33.4262 9.28096 33.2444 9.47627 33.177C9.53689 33.1366 9.57057 33.0221 9.63118 32.9952C9.6918 32.9682 9.88038 33.0895 9.86017 33.1164C9.83997 33.1434 9.69853 33.1838 9.67159 33.2713C9.64465 33.3589 9.62445 33.4464 9.67159 33.5003M6.63407 15.2011L5.38808 14.6421L5.92015 13.4702L7.1594 14.0292L7.4086 13.5375L4.5664 12.2579L4.33067 12.7967L5.38808 13.2546L4.86948 14.3996L3.81207 13.9214L3.57634 14.44L6.39834 15.7197L6.63407 15.2011ZM4.21617 17.8951C4.62872 18.0143 5.07164 17.9659 5.44869 17.7604C5.62015 17.6601 5.76868 17.525 5.88468 17.3637C6.00069 17.2025 6.0816 17.0187 6.1222 16.8242C6.20475 16.5566 6.20475 16.2702 6.1222 16.0026L5.50257 15.8477C5.62763 16.0983 5.65407 16.3867 5.57666 16.6559C5.54913 16.7806 5.49522 16.8981 5.41855 17.0003C5.34188 17.1025 5.24422 17.1872 5.13214 17.2486C4.89469 17.3765 4.61635 17.4055 4.35761 17.3294C4.09628 17.2746 3.86668 17.12 3.71778 16.8983C3.64895 16.7943 3.60314 16.6769 3.58339 16.5537C3.56365 16.4306 3.57043 16.3047 3.60328 16.1844C3.66032 15.92 3.80511 15.6826 4.01412 15.5109L3.36755 15.4031C3.1398 15.6441 2.99737 15.9531 2.96209 16.2828C2.92681 16.6125 3.00063 16.9446 3.17223 17.2283C3.41078 17.5765 3.77556 17.8181 4.18923 17.9019M8.00803 12.5138L5.38808 10.8974L5.085 11.3823L7.70495 13.0324L8.00803 12.5138ZM8.68153 11.5507L7.15267 10.271L9.59077 10.4663L9.89385 10.1026L7.5231 8.0821L7.16614 8.50641L8.68827 9.77934L6.26364 9.58403L5.94709 9.96119L8.31784 11.9817L8.68153 11.5507ZM16.0901 5.81911C16.2501 5.93787 16.4343 6.01967 16.6297 6.05864C16.825 6.0976 17.0266 6.09275 17.2199 6.04444C17.4131 5.99612 17.5932 5.90555 17.7473 5.77924C17.9013 5.65293 18.0254 5.49403 18.1106 5.31398C18.3005 4.94146 18.3438 4.51127 18.2319 4.1084C18.1411 3.70129 17.9007 3.34312 17.5584 3.10487C17.3984 2.98612 17.2142 2.90431 17.0188 2.86535C16.8235 2.82639 16.6219 2.83124 16.4286 2.87955C16.2354 2.92786 16.0553 3.01844 15.9012 3.14475C15.7472 3.27106 15.6231 3.42996 15.5378 3.61001C15.3467 3.98215 15.3034 4.41283 15.4166 4.81559C15.5071 5.22464 15.7473 5.58504 16.0901 5.82585M16.043 3.91308C16.0931 3.80555 16.1671 3.71085 16.2593 3.63616C16.3515 3.56148 16.4595 3.50877 16.5751 3.48204C16.6896 3.45025 16.8099 3.44526 16.9267 3.46745C17.0435 3.48964 17.1536 3.53842 17.2486 3.61001C17.4688 3.77285 17.6182 4.01388 17.6661 4.28351C17.7395 4.5361 17.7179 4.80679 17.6055 5.04458C17.5542 5.14981 17.4804 5.24251 17.3893 5.31616C17.2983 5.3898 17.1922 5.44261 17.0786 5.47086C16.965 5.49911 16.8465 5.50211 16.7316 5.47966C16.6167 5.45722 16.5081 5.40986 16.4134 5.34092C16.1957 5.17688 16.0488 4.93602 16.0026 4.66741C15.9286 4.41489 15.9502 4.14397 16.0632 3.90635M2.99712 20.8249L5.52278 20.8788V20.3063L2.99712 20.2389V19.3566H2.42464L2.36402 21.6937H2.93651L2.99712 20.8249ZM3.92656 24.0712C4.02464 23.9896 4.10488 23.8888 4.16229 23.7749C4.19097 23.7144 4.21354 23.6512 4.22964 23.5863C4.22964 23.4852 4.27679 23.4246 4.28352 23.391L4.33067 23.1754L4.37781 22.9464V22.8454C4.3923 22.7874 4.41261 22.731 4.43843 22.677C4.46003 22.6229 4.49863 22.5772 4.54842 22.5468C4.59822 22.5164 4.65652 22.503 4.71457 22.5087C4.7683 22.501 4.82309 22.5083 4.87298 22.5297C4.92286 22.551 4.96591 22.5857 4.99744 22.6299C5.08069 22.7364 5.12997 22.8654 5.13888 23.0003C5.16191 23.1968 5.14589 23.396 5.09173 23.5863C5.04325 23.763 4.96341 23.9295 4.85601 24.0779L5.52951 23.9971C5.71049 23.6615 5.77223 23.2745 5.70463 22.8993C5.68048 22.6144 5.55644 22.3472 5.3544 22.145C5.2584 22.0521 5.142 21.9831 5.01453 21.9433C4.88705 21.9035 4.75203 21.8942 4.62028 21.916C4.49811 21.9229 4.37935 21.9589 4.27391 22.0209C4.16847 22.083 4.0794 22.1694 4.01412 22.2729C3.89215 22.4811 3.8078 22.709 3.76492 22.9464C3.76492 23.0273 3.73125 23.1283 3.70431 23.2562C3.69199 23.3374 3.66936 23.4166 3.63696 23.492C3.62427 23.536 3.59905 23.5753 3.56436 23.6052C3.52968 23.6351 3.48703 23.6543 3.44164 23.6604C3.23959 23.6604 3.11835 23.5391 3.07794 23.2293C3.04139 22.9082 3.1049 22.5836 3.25979 22.2999L2.6469 22.374C2.51366 22.6668 2.46468 22.991 2.50546 23.3101C2.52359 23.5866 2.64076 23.8472 2.83548 24.0443C2.92472 24.1273 3.03188 24.1888 3.14867 24.2238C3.26546 24.2589 3.38875 24.2666 3.50899 24.2463C3.65718 24.2274 3.79958 24.1768 3.92656 24.0981M13.7935 7.2941L12.9381 5.49583L15.0731 6.68794L15.5042 6.48589L14.1572 3.68409L13.652 3.91982L14.5006 5.71135L12.406 4.52598L11.9615 4.71456L13.3085 7.51636L13.7935 7.2941ZM6.66774 26.9403L6.15588 27.1963L6.82939 28.5433L6.11547 28.9003L5.59013 27.8563L5.085 28.1055L5.61707 29.1629L5.085 29.4323L4.41149 28.0853L3.89962 28.3412L4.82233 30.1664L7.59045 28.7723L6.66774 26.9403ZM6.42528 26.2668L5.65748 26.2264L5.32073 25.0949L5.92688 24.6235L5.75177 24.0375L3.11162 26.058L3.26653 26.5834L6.59366 26.8326L6.42528 26.2668ZM3.9535 26.1052L4.86948 25.4317L5.1052 26.2129L3.9535 26.1052ZM10.4798 9.5975L10.2373 8.89031L11.1466 8.14272L11.8201 8.51988L12.2915 8.12925L9.38198 6.49262L8.95767 6.84285L10.0218 10.0083L10.4798 9.5975ZM10.6684 7.8329L10.042 8.35151L9.67159 7.26042L10.6684 7.8329ZM21.8352 21.2627L25.9772 24.3675V23.0609L21.8352 19.9493V21.2627ZM36.2684 18.2992L36.8207 18.1578L36.4503 16.6895L37.2248 16.4942L37.5144 17.6459L38.06 17.5112L37.7704 16.3595L38.3496 16.2113L38.7133 17.6392L39.2656 17.4978L38.7604 15.4907L35.7566 16.245L36.2684 18.2992ZM35.2851 15.1135L38.6055 14.9452L38.39 14.3727L36.0192 14.5141L37.7165 12.8775L37.4673 12.2983L35.0696 14.6151L35.2851 15.1135ZM34.4567 13.3759L37.1507 11.7999L36.8611 11.3082L34.1671 12.8842L34.4567 13.3759ZM38.7604 21.5119C38.6119 21.5008 38.4626 21.5215 38.3226 21.5725C38.2111 21.6305 38.1125 21.7107 38.033 21.8082C37.992 21.8609 37.9559 21.9173 37.9253 21.9766L37.831 22.1584L37.7367 22.3605L37.6424 22.576L37.602 22.6703C37.5762 22.7252 37.5446 22.7771 37.5077 22.8252C37.4801 22.8701 37.4397 22.9057 37.3917 22.9273C37.3436 22.9489 37.2902 22.9556 37.2383 22.9464C37.1848 22.9425 37.1334 22.9242 37.0895 22.8933C37.0456 22.8625 37.0109 22.8203 36.9891 22.7713C36.9325 22.6494 36.9115 22.514 36.9285 22.3807C36.9475 22.1851 37.0047 21.9952 37.0969 21.8217C37.18 21.6573 37.2917 21.509 37.4269 21.3839L36.7534 21.3233C36.5151 21.6123 36.38 21.9726 36.3695 22.347C36.3342 22.6324 36.401 22.9211 36.5581 23.162C36.6333 23.2728 36.7333 23.3647 36.8502 23.4301C36.9671 23.4956 37.0977 23.5329 37.2316 23.5391C37.3534 23.5595 37.4784 23.55 37.5958 23.5112C37.7131 23.4725 37.8193 23.4058 37.9051 23.3169C38.0625 23.1489 38.19 22.9553 38.2822 22.7444L38.4035 22.448C38.4321 22.3715 38.4706 22.2991 38.518 22.2325C38.5387 22.192 38.5707 22.1584 38.6102 22.1357C38.6496 22.113 38.6948 22.1021 38.7402 22.1045C38.9423 22.1045 39.0298 22.2864 39.0029 22.6029C38.9725 22.926 38.8431 23.2317 38.6325 23.4785L39.2521 23.5324C39.4446 23.2755 39.5612 22.9699 39.5888 22.6501C39.6294 22.3757 39.5696 22.0959 39.4205 21.8621C39.3501 21.7621 39.2575 21.6796 39.15 21.6212C39.0426 21.5628 38.9231 21.53 38.8008 21.5253M36.3695 19.2152L37.6155 19.1209L37.6559 19.5991L36.4705 20.5083L36.5244 21.1818L37.7771 20.2053C37.8463 20.373 37.9696 20.5129 38.1273 20.6026C38.2942 20.6926 38.4843 20.7301 38.6729 20.7104C38.7952 20.7059 38.9152 20.6761 39.0254 20.6228C39.1355 20.5694 39.2334 20.4938 39.3127 20.4006C39.3938 20.3006 39.4535 20.1851 39.4883 20.0612C39.523 19.9372 39.532 19.8075 39.5148 19.6799L39.4137 18.3935L36.3291 18.636L36.3695 19.2152ZM38.9019 19.0199L38.9557 19.6934C38.9708 19.8023 38.9444 19.9129 38.8817 20.0032C38.8489 20.043 38.8078 20.0752 38.7613 20.0973C38.7147 20.1194 38.6638 20.131 38.6123 20.1312C38.5616 20.1381 38.51 20.1339 38.4611 20.1188C38.4122 20.1036 38.3673 20.078 38.3294 20.0436C38.253 19.9637 38.2097 19.8578 38.2081 19.7473L38.1543 19.0738L38.9019 19.0199ZM35.0763 8.91725L34.7733 8.53335L32.3284 10.4259L32.6786 10.8637L34.2344 9.62444L33.5609 11.975L33.8573 12.3454L36.2819 10.4192L35.9317 9.9814L34.3826 11.2139L35.0763 8.91725ZM25.1353 6.06158L25.627 5.46889L26.745 5.84605V6.61385L27.3242 6.80917L27.1895 3.4753L26.6709 3.30019L24.5696 5.87973L25.1353 6.06158ZM26.6979 4.14208L26.7383 5.29378L25.9638 5.03111L26.6979 4.14208ZM21 0C16.8466 0 12.7865 1.23163 9.33303 3.53914C5.8796 5.84665 3.18798 9.1264 1.59854 12.9636C0.00909912 16.8009 -0.406771 21.0233 0.403518 25.0969C1.21381 29.1705 3.21386 32.9123 6.15077 35.8492C9.08767 38.7861 12.8295 40.7862 16.9031 41.5965C20.9767 42.4068 25.1991 41.9909 29.0364 40.4015C32.8736 38.812 36.1534 36.1204 38.4609 32.667C40.7684 29.2135 42 25.1534 42 21C41.9929 15.4326 39.7781 10.0953 35.8414 6.15863C31.9046 2.22191 26.5674 0.00712851 21 0ZM21 41.1918C17.0038 41.1918 13.0973 40.0068 9.77457 37.7866C6.45183 35.5664 3.86207 32.4108 2.33278 28.7187C0.803495 25.0267 0.403363 20.9641 1.18299 17.0447C1.96261 13.1252 3.88698 9.52501 6.71273 6.69925C9.53849 3.8735 13.1387 1.94913 17.0582 1.16951C20.9776 0.389884 25.0402 0.790016 28.7322 2.3193C32.4242 3.84859 35.5799 6.43835 37.8001 9.76109C40.0202 13.0838 41.2053 16.9903 41.2053 20.9865C41.2053 23.6399 40.6826 26.2673 39.6672 28.7187C38.6518 31.1702 37.1635 33.3976 35.2873 35.2738C33.411 37.15 31.1836 38.6383 28.7322 39.6537C26.2808 40.6692 23.6534 41.1918 21 41.1918ZM29.5131 7.36818L28.2874 6.70141L29.4795 4.4721L28.9609 4.20269L27.4994 6.9304L29.2505 7.86658L29.5131 7.36818ZM31.9715 9.65811C32.3357 9.60578 32.6647 9.41224 32.8874 9.11931L34.0661 7.77229L33.6283 7.40859L32.4362 8.75561C32.3157 8.91423 32.1404 9.02228 31.9445 9.05869C31.8594 9.06941 31.7729 9.06107 31.6914 9.03428C31.6098 9.00749 31.5353 8.96292 31.4731 8.90378C31.4062 8.85048 31.3522 8.78289 31.3149 8.70597C31.2776 8.62905 31.258 8.54475 31.2575 8.45927C31.269 8.26115 31.3529 8.07417 31.4933 7.93393L32.6854 6.58691L32.2543 6.21648L31.0757 7.5635C30.8199 7.82458 30.675 8.17457 30.6716 8.54009C30.6818 8.69914 30.7235 8.85458 30.7942 8.99743C30.8649 9.14027 30.9632 9.26767 31.0835 9.37227C31.2037 9.47687 31.3435 9.55658 31.4948 9.6068C31.6461 9.65702 31.8058 9.67675 31.9647 9.66485M22.5356 3.4753L23.0542 4.54618L23.3708 4.58659L24.1386 3.68409L23.8624 5.78544L24.4214 5.85952L24.8323 2.78833L24.2463 2.69403L23.2967 3.87267L22.6636 2.52566L22.0978 2.45157L21.687 5.48909L22.2527 5.56318L22.5356 3.4753ZM25.5529 38.0532C25.4182 38.0532 25.4048 38.2216 25.3913 38.3563V38.4573C25.3509 38.6594 25.0074 38.8614 24.7178 38.9557H24.637C24.5697 38.988 24.496 39.0047 24.4214 39.0047C24.3468 39.0047 24.2732 38.988 24.2059 38.9557C24.1597 38.9147 24.1236 38.8636 24.1002 38.8064C24.0768 38.7492 24.0669 38.6874 24.0712 38.6257C24.065 38.5802 24.0719 38.534 24.0909 38.4922C24.11 38.4505 24.1405 38.4151 24.179 38.39C24.179 38.39 24.2126 38.39 24.2261 38.39C24.2396 38.39 24.2935 38.4506 24.4484 38.3563C24.4484 38.3563 24.4484 38.3159 24.4484 38.2486C24.4556 38.1955 24.4692 38.1435 24.4888 38.0936L24.5494 37.9791L24.5898 37.9051C24.6057 37.8456 24.6053 37.783 24.5887 37.7238C24.5721 37.6645 24.5399 37.6109 24.4955 37.5683C24.4419 37.5193 24.3763 37.4854 24.3053 37.47C24.2343 37.4546 24.1605 37.4583 24.0914 37.4808C23.8624 37.5633 23.6502 37.6865 23.465 37.8444C23.3265 37.9779 23.1542 38.0711 22.9666 38.1138C22.922 38.1124 22.8793 38.0958 22.8454 38.0667C22.8454 38.0667 22.7848 38.0263 22.7579 38.0667C22.7309 38.1071 22.6636 38.1543 22.603 38.3092C22.5965 38.3606 22.5965 38.4126 22.603 38.4641C22.603 38.5718 22.603 38.7133 22.5289 38.7469C22.5205 38.7511 22.5113 38.7533 22.5019 38.7533C22.4926 38.7533 22.4834 38.7511 22.475 38.7469C22.4654 38.7441 22.4568 38.7388 22.4497 38.7318C22.4427 38.7248 22.4375 38.7161 22.4346 38.7065C22.3942 38.6257 22.4885 38.4439 22.4885 38.4439V38.289C22.483 38.2465 22.483 38.2035 22.4885 38.161C22.5693 37.9455 22.7646 37.8983 22.9734 37.8512C23.0841 37.8101 23.1834 37.7431 23.263 37.6559C23.3169 37.5818 23.263 37.5077 23.1754 37.4471C23.1417 37.401 23.0928 37.3684 23.0374 37.3548C22.982 37.3413 22.9235 37.3477 22.8724 37.373C22.7542 37.4521 22.6477 37.5473 22.5558 37.6559C22.4643 37.7552 22.3677 37.8496 22.2662 37.9387H22.2325C22.0305 38.1071 21.7947 38.3159 21.8015 38.4169C21.7979 38.4243 21.7961 38.4323 21.7961 38.4405C21.7961 38.4487 21.7979 38.4567 21.8015 38.4641C21.889 38.5045 21.9699 38.4169 22.0372 38.3361C22.1046 38.2553 22.145 38.2149 22.1786 38.2418C22.1989 38.2602 22.2139 38.2835 22.2222 38.3096C22.2304 38.3356 22.2317 38.3633 22.2258 38.39C22.1689 38.4585 22.1358 38.5435 22.1315 38.6325C22.1315 38.8345 22.1315 38.8816 22.2123 38.9557L22.2258 39.0635C22.2395 39.1142 22.2395 39.1677 22.2258 39.2184V39.2655C22.2373 39.283 22.2535 39.2968 22.2727 39.3051C22.2918 39.3135 22.313 39.3161 22.3336 39.3127C22.3336 39.3127 22.3672 39.3127 22.3807 39.3127C22.3967 39.3452 22.4051 39.3809 22.4051 39.4171C22.4051 39.4533 22.3967 39.489 22.3807 39.5215C22.3807 39.5215 22.2864 39.5215 22.2527 39.5215C22.2191 39.5215 22.1517 39.5956 22.1315 39.6494V39.6899C22.1133 39.7212 22.1021 39.7561 22.0984 39.7921C22.0947 39.8282 22.0987 39.8646 22.1102 39.899C22.1217 39.9334 22.1403 39.965 22.1649 39.9916C22.1894 40.0182 22.2194 40.0394 22.2527 40.0536C22.2877 40.0798 22.3302 40.094 22.374 40.094C22.4177 40.094 22.4602 40.0798 22.4952 40.0536C22.603 39.9997 22.6164 39.8313 22.6366 39.6427V39.5821C22.6472 39.4468 22.6743 39.3134 22.7175 39.1847C22.7386 39.1053 22.7386 39.0217 22.7175 38.9423V38.8547C22.7285 38.8097 22.7493 38.7677 22.7784 38.7316C22.8075 38.6955 22.8442 38.6663 22.8858 38.6459C22.9342 38.6146 22.9793 38.5785 23.0205 38.5382L23.1283 38.4304C23.2467 38.2928 23.388 38.1766 23.5459 38.0869C23.6103 38.0474 23.6711 38.0023 23.7277 37.9522C23.8002 37.8818 23.8846 37.8248 23.9769 37.7838C24.051 37.7838 24.1924 37.7097 24.2396 37.7838C24.274 37.8427 24.286 37.9121 24.2733 37.9791C24.2661 37.9833 24.258 37.9855 24.2497 37.9855C24.2414 37.9855 24.2333 37.9833 24.2261 37.9791C24.1857 37.9791 24.179 37.9791 24.1722 37.9118C24.1655 37.8444 24.1722 37.8579 24.1722 37.8444C24.1145 37.8321 24.0548 37.8321 23.9971 37.8444C23.9432 37.8444 23.9096 37.9118 23.8624 37.9791C23.83 38.0327 23.7916 38.0824 23.7479 38.1273C23.6637 38.2151 23.6048 38.3241 23.5775 38.4427C23.5502 38.5613 23.5556 38.685 23.593 38.8008C23.6091 38.8764 23.6401 38.948 23.684 39.0116C23.7279 39.0752 23.784 39.1294 23.8489 39.1713L23.8961 39.2049C24.0712 39.3868 24.3069 39.5282 24.8861 39.3329C25.2202 39.2395 25.508 39.026 25.6944 38.7335C25.7251 38.6411 25.7374 38.5437 25.7304 38.4466C25.7235 38.3495 25.6975 38.2548 25.6539 38.1677C25.6405 38.1417 25.6203 38.1198 25.5954 38.1044C25.5704 38.0889 25.5418 38.0806 25.5125 38.0802M36.0731 24.4753L39.1039 25.1151L39.2184 24.5561L36.1876 23.923L36.0731 24.4753ZM29.338 35.5478C29.4391 35.3727 29.4593 35.1706 29.264 35.1437C29.2264 35.1319 29.1866 35.1294 29.1478 35.1364C29.1091 35.1435 29.0727 35.1598 29.0417 35.1841C28.8396 35.2986 28.9205 35.3929 28.779 35.4737C28.6376 35.5545 28.6645 35.2514 28.779 35.1639C28.9945 34.982 29.2101 34.7059 29.136 34.4904C29.0619 34.2748 28.9676 34.1334 28.7117 34.3624C28.5244 34.5171 28.3824 34.7196 28.3008 34.9484C28.216 35.3042 28.087 35.6481 27.9169 35.9721C27.8024 36.1337 27.7822 36.0327 27.6475 36.1539C27.2704 36.484 27.0616 36.7803 27.2434 36.9824C27.2976 37.0306 27.3642 37.0625 27.4357 37.0744C27.5073 37.0864 27.5807 37.0778 27.6475 37.0497C27.7688 37.016 27.8428 36.915 27.8563 36.9824C27.8281 37.1789 27.783 37.3727 27.7216 37.5616C27.6711 37.7305 27.5888 37.8882 27.4792 38.0263C27.2636 38.2957 27.203 38.39 27.2636 38.4775C27.2856 38.4999 27.3118 38.5177 27.3407 38.5299C27.3696 38.542 27.4006 38.5483 27.432 38.5483C27.4634 38.5483 27.4944 38.542 27.5233 38.5299C27.5522 38.5177 27.5784 38.4999 27.6004 38.4775C27.9754 38.0414 28.2287 37.514 28.3345 36.9487C28.3783 36.8123 28.4323 36.6795 28.4962 36.5513C28.55 36.4031 28.4962 36.3021 28.5972 36.2011C28.8464 35.898 29.2101 35.7902 29.338 35.5747M30.1732 36.2886C30.0054 36.3689 29.8257 36.4212 29.6411 36.4435C29.3718 36.4573 29.1019 36.4323 28.8396 36.3695C28.7386 36.3695 28.779 36.6456 28.8396 36.7668C29.0619 37.1171 29.7489 37.0093 30.1867 36.8948C30.3523 36.8194 30.5083 36.7244 30.6514 36.6119C30.7996 36.5244 30.941 36.4974 30.9343 36.3964C30.9275 36.2954 30.9747 36.2752 30.9343 36.2011C30.8063 36.0192 30.5234 36.0799 30.2136 36.255M16.0699 24.3608L20.212 21.2492V19.9493L16.0699 23.0609V24.3608ZM38.2216 26.3813L35.77 25.5933L35.5882 26.1389L37.9926 26.9403L37.7165 27.7688L38.2553 27.9506L38.9894 25.7348L38.4506 25.5529L38.2216 26.3813ZM22.8252 36.6254C22.8683 36.5367 22.9304 36.4585 23.0071 36.3964C23.0405 36.3667 23.07 36.3327 23.0946 36.2954C23.1132 36.27 23.1233 36.2393 23.1233 36.2078C23.1233 36.1763 23.1132 36.1457 23.0946 36.1203C23.0732 36.0918 23.044 36.0703 23.0104 36.0583C22.9769 36.0463 22.9406 36.0444 22.906 36.0529C22.7781 36.0529 22.603 36.3088 22.5154 36.4435C22.4677 36.5229 22.4272 36.6063 22.3942 36.6927C22.3611 36.7825 22.3181 36.8683 22.2662 36.9487C22.244 36.9949 22.2366 37.0469 22.245 37.0976C22.2534 37.1482 22.2773 37.195 22.3133 37.2316C22.3412 37.2736 22.3814 37.306 22.4285 37.3241C22.4756 37.3422 22.5272 37.3452 22.576 37.3326C22.576 37.3326 22.576 37.3326 22.6232 37.272C22.6318 37.2392 22.6498 37.2097 22.6749 37.187C22.7 37.1643 22.7312 37.1494 22.7646 37.144C22.8117 37.144 22.8454 37.144 22.8791 37.2046C22.9005 37.2313 22.9287 37.2516 22.9607 37.2635C22.9927 37.2753 23.0274 37.2783 23.0609 37.272C23.1485 37.272 23.2091 37.1373 23.263 37.043L23.3034 36.9689C23.4563 36.7461 23.6452 36.5503 23.8624 36.3897C23.923 36.3897 23.9634 36.3897 23.9904 36.3897C24.0173 36.3897 23.9904 36.4435 24.0308 36.4974V36.5446C24.0355 36.5639 24.0446 36.5819 24.0575 36.5971C24.0703 36.6123 24.0866 36.6243 24.1049 36.6321C24.1049 36.6321 24.1588 36.6321 24.152 36.6927C24.1453 36.7534 24.0981 36.8005 24.0443 36.8409C23.9904 36.8813 23.9298 36.9217 23.9298 36.9958C23.9243 37.0324 23.9276 37.0698 23.9393 37.1049C23.951 37.14 23.9708 37.1718 23.9971 37.1979C24.0188 37.2097 24.0431 37.2158 24.0678 37.2158C24.0925 37.2158 24.1168 37.2097 24.1386 37.1979C24.2194 37.1979 24.2531 37.0901 24.2867 37.0026C24.3072 36.9457 24.3343 36.8914 24.3675 36.8409C24.4069 36.7882 24.4646 36.7521 24.5292 36.7399C24.5858 36.7291 24.6376 36.7008 24.6774 36.6591C24.6977 36.6379 24.7126 36.6122 24.7208 36.584C24.729 36.5559 24.7303 36.5262 24.7245 36.4974C24.7138 36.461 24.6948 36.4274 24.6692 36.3994C24.6435 36.3714 24.6117 36.3496 24.5763 36.3358C24.5584 36.3255 24.5386 36.3191 24.518 36.3169C24.4975 36.3147 24.4767 36.3169 24.457 36.3232C24.4374 36.3296 24.4193 36.34 24.4038 36.3537C24.3884 36.3675 24.3761 36.3843 24.3675 36.4031C24.3675 36.4031 24.3675 36.4031 24.3339 36.4031C24.2665 36.3358 24.3339 36.2617 24.3339 36.1809C24.3544 36.1449 24.3703 36.1064 24.381 36.0664C24.3924 36.0482 24.3984 36.0272 24.3984 36.0058C24.3984 35.9843 24.3924 35.9633 24.381 35.9452C24.3406 35.9047 24.2598 35.9452 24.1453 35.9452C24.0947 35.9704 24.0508 36.0074 24.0173 36.0529C23.9802 36.1012 23.9346 36.1423 23.8826 36.1741C23.7645 36.2347 23.6556 36.3118 23.5593 36.4031C23.5167 36.4476 23.4666 36.4841 23.4112 36.5109C23.3619 36.516 23.3123 36.516 23.263 36.5109C23.1665 36.5072 23.0708 36.5305 22.9869 36.5783L22.9195 36.6793C22.9195 36.7264 22.8589 36.7803 22.8319 36.787C22.7848 36.787 22.8319 36.6793 22.8319 36.5985L22.8252 36.6254ZM16.0228 21.0471L20.1649 17.9355V16.6289L16.0228 19.7405V21.0471ZM34.0728 34.1065C33.992 33.992 34.0257 33.9785 33.9852 33.9381C33.9448 33.8977 33.8236 33.8707 33.8236 33.8303C33.8236 33.7899 33.992 33.5946 34.0189 33.5542C34.0459 33.5138 34.1806 33.3926 34.2075 33.2848C34.2344 33.177 33.9381 33.0491 33.864 33.0962C33.7899 33.1434 33.6013 33.5205 33.4599 33.6889C33.406 33.7495 33.3589 33.7428 33.3252 33.6889C33.2915 33.635 33.5744 33.2309 33.4464 33.1164C33.3185 33.0019 33.0625 33.0087 32.9144 33.2242C32.9144 33.2242 32.7393 33.5003 32.5574 33.7226C32.3756 33.9448 32.3284 34.2681 32.4968 34.3355C32.6652 34.4028 32.8201 34.2412 32.8538 34.0459C32.8538 33.9785 32.8538 33.9718 32.8538 33.9179C32.8538 33.864 32.8942 33.8169 32.8942 33.7832C32.8942 33.7495 32.8942 33.6013 32.9683 33.6081C33.0423 33.6148 33.076 33.7495 33.0962 33.7899C33.1302 33.8835 33.1302 33.986 33.0962 34.0795C32.9817 34.3759 32.8133 34.6655 32.9346 34.8204C32.9773 34.8382 33.023 34.8473 33.0693 34.8473C33.1155 34.8473 33.1613 34.8382 33.204 34.8204C33.2781 34.78 33.2646 34.7126 33.3117 34.551C33.3589 34.3893 33.4532 34.4163 33.4734 34.3691C33.4936 34.322 33.5071 34.1132 33.5609 34.1267C33.6381 34.1738 33.7028 34.2388 33.7497 34.3162C33.7966 34.3935 33.8242 34.481 33.8303 34.5712C33.8441 34.6289 33.8452 34.6888 33.8335 34.7469C33.8219 34.8051 33.7978 34.86 33.763 34.9079C33.763 34.9079 33.6216 35.0898 33.7158 35.1976C33.7472 35.2425 33.7937 35.2748 33.8469 35.2884C33.9 35.302 33.9563 35.296 34.0055 35.2716C34.2816 35.1235 34.2142 34.8137 34.194 34.4971C34.1867 34.3525 34.1451 34.2117 34.0728 34.0863M34.8877 27.789L34.6251 28.2941L35.8711 28.9339L36.8881 30.6648L37.1912 30.0789L36.5176 28.9541L37.8108 28.8396L38.1206 28.2402L36.1001 28.4221L34.8877 27.789ZM32.6113 33.2915C32.8201 33.0491 32.9548 32.7797 33.076 32.618C33.1972 32.4564 33.2377 32.4698 33.2983 32.3756C33.3589 32.2813 33.4464 32.3756 33.5071 32.3756C33.6754 32.3419 33.8236 32.2139 33.8169 32.0859C33.8114 32.0224 33.7883 31.9617 33.7502 31.9105C33.7122 31.8594 33.6606 31.8199 33.6013 31.7963C33.305 31.6549 33.0895 32.3217 32.9278 32.2678C32.8942 32.2678 32.8874 32.0321 32.8874 32.0321C32.8803 31.852 32.8294 31.6763 32.7393 31.5202C32.6517 31.3855 32.5843 31.4057 32.5103 31.3518C32.4362 31.2979 32.4025 31.2508 32.3149 31.2441C32.2737 31.2378 32.2315 31.241 32.1917 31.2534C32.1518 31.2657 32.1153 31.287 32.0848 31.3155C32.0544 31.344 32.0308 31.3791 32.0158 31.418C32.0008 31.457 31.9949 31.4988 31.9984 31.5404C31.9984 31.702 32.1331 31.9782 32.0523 32.0792C31.9715 32.1802 31.857 32.187 31.8165 32.0792C31.7761 31.9715 31.7492 31.7492 31.6818 31.7088C31.6145 31.6684 31.5539 31.7492 31.5 31.8502C31.4461 31.9512 31.5539 32.1802 31.4394 32.2274C31.3249 32.2745 31.3182 32.1331 31.2643 32.1466C31.2104 32.16 31.2643 32.5507 31.2037 32.6517C31.1423 32.7145 31.1052 32.797 31.099 32.8846C31.0929 32.9722 31.118 33.0591 31.17 33.1299C31.2306 33.2579 31.3788 33.433 31.4596 33.5811C31.5404 33.7293 31.7155 33.8505 31.7021 33.9314C31.6886 34.0122 31.6482 33.965 31.5943 34.0391C31.5404 34.1132 31.7559 34.7126 32.0792 34.881C32.1398 34.9147 32.3015 34.9282 32.3486 34.8339C32.3958 34.7396 32.086 34.5645 32.0186 34.3893C31.9513 34.2142 32.2409 33.9314 32.3823 33.6754C32.4505 33.5201 32.5363 33.3732 32.6382 33.2376M31.9647 33.6956C31.9108 33.6956 31.8435 33.5879 31.7492 33.5003C31.6549 33.4128 31.4326 33.204 31.4461 33.177C31.4596 33.1501 31.4461 32.9211 31.5 32.9346C31.5539 32.948 31.6818 33.1905 31.7357 33.2646C31.7896 33.3387 31.8704 33.3252 31.9176 33.507C31.9647 33.6889 32.0321 33.6687 31.9647 33.7024M32.059 33.0827C31.9984 33.0827 31.9715 33.1299 31.9176 33.0827C31.8633 33.0198 31.8267 32.9438 31.8113 32.8622C31.7959 32.7805 31.8024 32.6963 31.83 32.618C31.958 32.4429 31.9513 32.7325 31.9647 32.7729C31.9782 32.8133 32.1196 33.0895 32.059 33.1097M32.2476 31.8974C32.2947 31.7425 32.2476 31.7088 32.2813 31.6414C32.3149 31.5741 32.4564 31.5741 32.5507 31.6414C32.645 31.7088 32.6988 31.8435 32.6382 31.9176C32.5776 31.9917 32.4699 31.9176 32.4227 31.9176C32.3756 31.9176 32.4227 32.1062 32.4766 32.0927C32.5305 32.0792 32.6046 32.1668 32.6248 32.2611C32.645 32.3554 32.6248 32.3756 32.6248 32.4092C32.6248 32.4429 32.7393 32.4698 32.7595 32.517C32.7797 32.5641 32.7123 32.6988 32.6315 32.6921C32.5507 32.6854 32.5305 32.4362 32.4766 32.389C32.2072 32.1196 32.2341 31.931 32.2543 31.8637M32.2947 33.0019H32.2543C32.1668 33.0019 32.1802 32.719 32.187 32.7123C32.3149 32.6045 32.5103 33.076 32.2947 33.0423M21.8352 17.9423L25.9772 21.0539V19.7405L21.8352 16.6289V17.9423ZM21 6.78223C18.188 6.78223 15.4391 7.61609 13.101 9.17836C10.7629 10.7406 8.94061 12.9611 7.8645 15.5591C6.78839 18.157 6.50683 21.0158 7.05543 23.7737C7.60403 26.5317 8.95814 29.0651 10.9465 31.0535C12.9349 33.0419 15.4683 34.396 18.2263 34.9446C20.9842 35.4932 23.8429 35.2116 26.4409 34.1355C29.0389 33.0594 31.2594 31.2371 32.8216 28.899C34.3839 26.5609 35.2178 23.812 35.2178 21C35.2124 17.2309 33.7128 13.6176 31.0476 10.9524C28.3824 8.28723 24.7691 6.78758 21 6.78223ZM21 34.7261C18.2836 34.7261 15.6282 33.9205 13.3697 32.4112C11.1112 30.902 9.35108 28.7568 8.31187 26.247C7.27267 23.7373 7.0011 20.9757 7.53153 18.3116C8.06196 15.6475 9.37056 13.2006 11.2918 11.2803C13.2131 9.35999 15.6606 8.0526 18.325 7.52347C20.9893 6.99435 23.7508 7.26727 26.26 8.30771C28.7692 9.34814 30.9135 11.1094 32.4217 13.3686C33.9299 15.6278 34.7342 18.2836 34.7328 21C34.7293 24.6411 33.2813 28.132 30.7066 30.7066C28.132 33.2813 24.6411 34.7293 21 34.7328M21 8.0821C18.4435 8.0821 15.9444 8.84029 13.8188 10.2608C11.6932 11.6812 10.0366 13.7002 9.05856 16.0622C8.08053 18.4243 7.82497 21.0234 8.32421 23.5307C8.82346 26.038 10.0551 28.3409 11.8633 30.1482C13.6715 31.9555 15.9751 33.1859 18.4827 33.6838C20.9902 34.1818 23.5892 33.9249 25.9507 32.9456C28.3123 31.9663 30.3303 30.3087 31.7497 28.1824C33.1691 26.056 33.926 23.5565 33.9246 21C33.9193 17.5744 32.5557 14.2908 30.1328 11.8692C27.7099 9.44758 24.4256 8.08566 21 8.0821ZM29.1629 20.111C29.2606 20.1688 29.345 20.2465 29.4106 20.3391C29.4762 20.4317 29.5216 20.5371 29.5438 20.6484C29.5659 20.7597 29.5644 20.8744 29.5394 20.9851C29.5143 21.0958 29.4661 21.1999 29.3981 21.2908C29.3301 21.3816 29.2437 21.4571 29.1446 21.5124C29.0454 21.5676 28.9358 21.6014 28.8227 21.6114C28.7097 21.6215 28.5958 21.6076 28.4885 21.5707C28.3811 21.5339 28.2828 21.4748 28.1998 21.3974L27.661 20.9933V22.2999L29.1697 23.4314C29.2673 23.4892 29.3517 23.5669 29.4173 23.6595C29.4829 23.7521 29.5283 23.8575 29.5505 23.9688C29.5727 24.0801 29.5712 24.1948 29.5461 24.3055C29.521 24.4162 29.4729 24.5203 29.4049 24.6112C29.3368 24.702 29.2504 24.7775 29.1513 24.8328C29.0522 24.888 28.9425 24.9218 28.8295 24.9318C28.7164 24.9419 28.6025 24.928 28.4952 24.8911C28.3879 24.8543 28.2895 24.7952 28.2065 24.7178L27.6677 24.3137V25.5933L29.1764 26.7248C29.274 26.7826 29.3584 26.8604 29.424 26.953C29.4897 27.0456 29.535 27.151 29.5572 27.2623C29.5794 27.3736 29.5779 27.4883 29.5528 27.599C29.5277 27.7096 29.4796 27.8138 29.4116 27.9046C29.3436 27.9955 29.2572 28.071 29.1581 28.1262C29.0589 28.1815 28.9493 28.2152 28.8362 28.2253C28.7232 28.2353 28.6093 28.2215 28.5019 28.1846C28.3946 28.1477 28.2963 28.0886 28.2133 28.0112L21.8554 23.2428V24.5831L28.3749 29.4727C28.4693 29.5325 28.5503 29.6111 28.6127 29.7037C28.6751 29.7963 28.7177 29.9009 28.7377 30.0108C28.7578 30.1206 28.7548 30.2335 28.729 30.3421C28.7032 30.4508 28.6552 30.553 28.588 30.6422C28.5207 30.7313 28.4357 30.8056 28.3384 30.8603C28.241 30.915 28.1333 30.9489 28.0222 30.9599C27.911 30.9709 27.7988 30.9587 27.6926 30.9242C27.5864 30.8896 27.4885 30.8334 27.4051 30.7591L21.8554 26.5969V31.042C21.8554 31.2635 21.7674 31.4759 21.6107 31.6325C21.4541 31.7892 21.2417 31.8772 21.0202 31.8772C20.7987 31.8772 20.5863 31.7892 20.4297 31.6325C20.273 31.4759 20.1851 31.2635 20.1851 31.042V26.5969L14.6151 30.7591C14.5317 30.8334 14.4338 30.8896 14.3276 30.9242C14.2214 30.9587 14.1092 30.9709 13.9981 30.9599C13.8869 30.9489 13.7792 30.915 13.6819 30.8603C13.5845 30.8056 13.4995 30.7313 13.4322 30.6422C13.365 30.553 13.317 30.4508 13.2912 30.3421C13.2654 30.2335 13.2625 30.1206 13.2825 30.0108C13.3025 29.9009 13.3451 29.7963 13.4075 29.7037C13.47 29.6111 13.5509 29.5325 13.6453 29.4727L20.1649 24.5831V23.2765L13.8069 28.0449C13.6355 28.1735 13.4199 28.2287 13.2077 28.1984C12.9955 28.1681 12.804 28.0547 12.6754 27.8833C12.5468 27.7118 12.4916 27.4962 12.5219 27.284C12.5522 27.0718 12.6656 26.8804 12.8371 26.7518L14.3457 25.5933V24.3137L13.8069 24.7178C13.7239 24.7952 13.6256 24.8543 13.5183 24.8911C13.4109 24.928 13.297 24.9419 13.184 24.9318C13.071 24.9218 12.9613 24.888 12.8622 24.8328C12.763 24.7775 12.6766 24.702 12.6086 24.6112C12.5406 24.5203 12.4925 24.4162 12.4674 24.3055C12.4423 24.1948 12.4408 24.0801 12.463 23.9688C12.4852 23.8575 12.5305 23.7521 12.5962 23.6595C12.6618 23.5669 12.7462 23.4892 12.8438 23.4314L14.3525 22.2999V20.9933L13.8137 21.3974C13.6422 21.4989 13.4393 21.5335 13.2439 21.4945C13.0485 21.4556 12.8743 21.3458 12.7549 21.1863C12.6355 21.0268 12.5792 20.8288 12.5969 20.6303C12.6145 20.4319 12.7049 20.2469 12.8505 20.111L20.1649 14.6151V13.3085L13.8069 18.077C13.6355 18.1785 13.4326 18.2131 13.2371 18.1741C13.0417 18.1352 12.8676 18.0254 12.7482 17.8659C12.6288 17.7064 12.5725 17.5084 12.5901 17.3099C12.6078 17.1115 12.6981 16.9265 12.8438 16.7906L14.3525 15.6591V13.78C14.3525 13.5585 14.4405 13.3461 14.5971 13.1894C14.7537 13.0328 14.9661 12.9448 15.1876 12.9448C15.4091 12.9448 15.6215 13.0328 15.7782 13.1894C15.9348 13.3461 16.0228 13.5585 16.0228 13.78V14.3996L20.1649 11.288V9.71873C20.1649 9.49723 20.2528 9.28481 20.4095 9.12819C20.5661 8.97157 20.7785 8.88358 21 8.88358C21.2215 8.88358 21.4339 8.97157 21.5905 9.12819C21.7472 9.28481 21.8352 9.49723 21.8352 9.71873V11.2947L25.9772 14.4063V13.7867C25.9772 13.5652 26.0652 13.3528 26.2218 13.1962C26.3785 13.0396 26.5909 12.9516 26.8124 12.9516C27.0339 12.9516 27.2463 13.0396 27.4029 13.1962C27.5595 13.3528 27.6475 13.5652 27.6475 13.7867V15.6658L29.1562 16.7973C29.2538 16.8551 29.3382 16.9329 29.4038 17.0255C29.4695 17.1181 29.5148 17.2234 29.537 17.3347C29.5592 17.446 29.5577 17.5608 29.5326 17.6714C29.5075 17.7821 29.4594 17.8863 29.3914 17.9771C29.3234 18.068 29.237 18.1435 29.1378 18.1987C29.0387 18.254 28.9291 18.2877 28.816 18.2978C28.703 18.3078 28.5891 18.294 28.4817 18.2571C28.3744 18.2202 28.2761 18.1611 28.1931 18.0837L21.8352 13.3153V14.6151L29.1629 20.111Z" fill="black"/>
</svg>
